<svg xmlns="http://www.w3.org/2000/svg" width="276" height="84" fill="none" viewBox="0 0 92 28"><path fill="url(#logo_svg__a)" d="M20.529 25.068 0 16.442v4.017a2 2 0 0 0 1.184 1.826l11.97 5.35a2 2 0 0 0 1.632 0l5.743-2.567Z"></path><path fill="#E5FF65" d="M0 5.056V9.65a2 2 0 0 0 1.225 1.844l23.94 10.06a2 2 0 0 0 2.775-1.843v-2.915L0 5.056Z"></path><path fill="url(#logo_svg__b)" d="M27.94 11.234 7.603 2.688l5.59-2.36a2 2 0 0 1 1.555 0l11.97 5.054a2 2 0 0 1 1.222 1.842v4.01Z"></path><path fill="#fff" d="M44.12 9.3v3.5h4.7v2.22h-4.7v3.7h5.3V21h-8.1V7.02h8.1V9.3h-5.3Zm17.345-2.26V9.3h-3.72V21h-2.8V9.3h-3.72V7.04h10.24Zm28.974 0V21h-2.8v-5.94h-5.98V21h-2.8V7.04h2.8v5.74h5.98V7.04h2.8Z"></path><path fill="#E5FF65" d="M62.828 14c0-1.373.306-2.6.92-3.68a6.64 6.64 0 0 1 2.54-2.54c1.08-.613 2.286-.92 3.62-.92 1.56 0 2.926.4 4.1 1.2 1.173.8 1.993 1.907 2.46 3.32h-3.22c-.32-.667-.774-1.167-1.36-1.5-.574-.333-1.24-.5-2-.5-.814 0-1.54.193-2.18.58-.627.373-1.12.907-1.48 1.6-.347.693-.52 1.507-.52 2.44 0 .92.173 1.733.52 2.44a4.05 4.05 0 0 0 1.48 1.62c.64.373 1.366.56 2.18.56.76 0 1.426-.167 2-.5.586-.347 1.04-.853 1.36-1.52h3.22c-.467 1.427-1.287 2.54-2.46 3.34-1.16.787-2.527 1.18-4.1 1.18-1.334 0-2.54-.3-3.62-.9a6.828 6.828 0 0 1-2.54-2.54c-.614-1.08-.92-2.307-.92-3.68Z"></path><defs><linearGradient id="logo_svg__a" x1="0.508" x2="20.529" y1="17.558" y2="28.628" gradientUnits="userSpaceOnUse"><stop stop-color="#C4E970"></stop><stop offset="1" stop-color="#D5E970" stop-opacity="0"></stop></linearGradient><linearGradient id="logo_svg__b" x1="12.263" x2="30.887" y1="-4.974" y2="13.243" gradientUnits="userSpaceOnUse"><stop stop-color="#D5E970" stop-opacity="0"></stop><stop offset="1" stop-color="#D5E970"></stop></linearGradient></defs></svg>