<?xml version="1.0" encoding="UTF-8"?>
<svg width="40px" height="40px" viewBox="0 0 40 40" version="1.1" xmlns="http://www.w3.org/2000/svg" xmlns:xlink="http://www.w3.org/1999/xlink">
    <title>形状结合</title>
    <g id="页面-1" stroke="none" stroke-width="1" fill="none" fill-rule="evenodd">
        <g id="Tronscription-Market——token备份" transform="translate(-1022.000000, -740.000000)" fill="#F6335A">
            <g id="编组-5备份-9" transform="translate(840.000000, 453.000000)">
                <g id="编组-5" transform="translate(182.000000, 287.000000)">
                    <path d="M20,0 C31.045695,0 40,8.954305 40,20 C40,31.045695 31.045695,40 20,40 C8.954305,40 0,31.045695 0,20 C0,8.954305 8.954305,0 20,0 Z M26.8580848,27.1962023 C25.8085817,27.1962023 24.9577913,28.035908 24.9577913,29.0717376 C24.9577913,30.1075671 25.8085817,30.9472728 26.8580848,30.9472728 C27.9075878,30.9472728 28.7583782,30.1075671 28.7583782,29.0717376 C28.7583782,28.035908 27.9075878,27.1962023 26.8580848,27.1962023 Z M14.8857054,27.1962023 C13.8362023,27.1962023 12.9854119,28.035908 12.9854119,29.0717376 C12.9854119,30.1075671 13.8362023,30.9472728 14.8857054,30.9472728 C15.9352085,30.9472728 16.7859988,30.1075671 16.7859988,29.0717376 C16.7859988,28.035908 15.9352085,27.1962023 14.8857054,27.1962023 Z M12.7950487,28.0156115 L14.6331144,26.1792107 C14.728619,26.1932414 14.8260954,26.2004845 14.9249794,26.2004845 L26.8970546,26.2004845 C27.8393609,26.2004845 28.653843,25.5427348 28.8522286,24.6215485 L30.7913802,15.6172662 C30.82118,15.4788933 30.8362062,15.3377477 30.8362062,15.1962023 C30.8362062,14.0916328 29.9407757,13.1962023 28.8362062,13.1962023 L27.614,13.196 L29.7656115,11.0450487 L28.7656115,10.0450487 L11.7950487,27.0156115 L12.7950487,28.0156115 Z M27.4194119,22.2012023 L27.113974,23.6862145 C27.0182099,24.1509427 26.6090447,24.4843903 26.1345522,24.4843903 L16.326,24.484 L18.609,22.201 L27.4194119,22.2012023 Z M8.04332615,10.607913 C7.8929641,11.0724866 8.1464585,11.5712037 8.61038972,11.7235364 L10.546,12.359 L11.0085411,14.892068 C10.9724246,15.1265665 10.9777267,15.3715037 11.0306538,15.6172662 L12.3094119,21.5562023 L12.3098432,22.201912 L12.4484119,22.2012023 L12.809,23.879 L14.199,22.489 L14.1464119,22.2012023 L14.487,22.201 L16.487,20.201 L13.7764119,20.2012023 L13.316,17.708 L13.0128135,15.7716545 C13.0733997,15.3600657 13.388836,15.0138356 13.8207494,14.9340466 C13.8806693,14.9229774 13.9414756,14.917408 14.0024095,14.917408 L21.771,14.917 L23.492,13.196 L12.9858278,13.1962023 C12.8914641,13.1962023 12.7972782,13.2028806 12.7039731,13.2161624 L12.616,13.232 L12.284,11.104 L12.289689,11.07908 L9.14909463,10.0429022 C8.68772168,9.8935761 8.19265227,10.14654 8.04332615,10.607913 Z M27.6938394,14.917408 C28.2461242,14.917408 28.6938394,15.3651233 28.6938394,15.917408 C28.6938394,15.9852064 28.6869446,16.052829 28.6732612,16.1192322 L27.5114119,21.7542023 L27.5121907,20.201912 L20.609,20.201 L25.893,14.917 L27.6938394,14.917408 Z" id="形状结合"></path>
                </g>
            </g>
        </g>
    </g>
</svg>