<?xml version="1.0" encoding="UTF-8"?>
<svg width="24px" height="22px" viewBox="0 0 24 22" version="1.1" xmlns="http://www.w3.org/2000/svg" xmlns:xlink="http://www.w3.org/1999/xlink">
    <title>形状结合</title>
    <g id="页面-1" stroke="none" stroke-width="1" fill="none" fill-rule="evenodd">
        <g id="Tronscription-Market——token备份" transform="translate(-1860.000000, -25.000000)" fill="currentColor">
            <path d="M1879.40029,42.9942903 C1880.4498,42.9942903 1881.30059,43.8339961 1881.30059,44.8698256 C1881.30059,45.9056551 1880.4498,46.7453609 1879.40029,46.7453609 C1878.35079,46.7453609 1877.5,45.9056551 1877.5,44.8698256 C1877.5,43.8339961 1878.35079,42.9942903 1879.40029,42.9942903 Z M1867.42791,42.9942903 C1868.47742,42.9942903 1869.32821,43.8339961 1869.32821,44.8698256 C1869.32821,45.9056551 1868.47742,46.7453609 1867.42791,46.7453609 C1866.37841,46.7453609 1865.52762,45.9056551 1865.52762,44.8698256 C1865.52762,43.8339961 1866.37841,42.9942903 1867.42791,42.9942903 Z M1861.6913,25.8409903 L1864.8319,26.877168 L1864.82621,26.902088 L1865.15821,29.030088 L1865.24618,29.0142504 C1865.33949,29.0009686 1865.43367,28.9942903 1865.52804,28.9942903 L1881.37841,28.9942903 C1882.48298,28.9942903 1883.37841,29.8897208 1883.37841,30.9942903 C1883.37841,31.1358358 1883.36339,31.2769813 1883.33359,31.4153543 L1881.39444,40.4196365 C1881.19605,41.3408229 1880.38157,41.9985726 1879.43926,41.9985726 L1867.46719,41.9985726 C1866.52488,41.9985726 1865.7104,41.3408229 1865.51201,40.4196365 L1864.99062,37.9992903 L1864.85205,38 L1864.85162,37.3542903 L1863.57286,31.4153543 C1863.51994,31.1695917 1863.51463,30.9246546 1863.55075,30.6901561 L1863.08581,28.1596731 L1863.08821,28.157088 L1861.1526,27.5216245 C1860.68867,27.3692918 1860.43517,26.8705747 1860.58553,26.406001 C1860.73486,25.9446281 1861.22993,25.6916642 1861.6913,25.8409903 Z M1879.96162,37.9992903 L1866.68862,37.9992903 L1866.95913,39.4641385 C1867.04674,39.9383375 1867.46027,40.2824783 1867.9425,40.2824783 L1878.67676,40.2824783 C1879.15125,40.2824783 1879.56042,39.9490308 1879.65618,39.4843025 L1879.96162,37.9992903 Z M1880.23605,30.7154961 L1866.54462,30.7154961 C1866.48368,30.7154961 1866.42288,30.7210654 1866.36296,30.7321347 C1865.93104,30.8119237 1865.61561,31.1581537 1865.55502,31.5697425 L1865.85821,33.506088 L1866.31862,35.9992903 L1880.0544,36 L1880.05362,37.5522903 L1881.21547,31.9173202 C1881.22915,31.850917 1881.23605,31.7832944 1881.23605,31.7154961 C1881.23605,31.1632113 1880.78833,30.7154961 1880.23605,30.7154961 Z" id="形状结合"></path>
        </g>
    </g>
</svg>