<?xml version="1.0" encoding="UTF-8"?>
<svg width="20px" height="20px" viewBox="0 0 20 20" version="1.1" xmlns="http://www.w3.org/2000/svg" xmlns:xlink="http://www.w3.org/1999/xlink">
    <title>形状结合</title>
    <g id="页面-1" stroke="none" stroke-width="1" fill="none" fill-rule="evenodd">
        <g id="Tronscription-Market——token备份" transform="translate(-580.000000, -481.000000)" fill="currentColor">
            <g id="编组-5" transform="translate(320.000000, 453.000000)">
                <path d="M270,28 C275.522847,28 280,32.4771525 280,38 C280,43.5228475 275.522847,48 270,48 C264.477153,48 260,43.5228475 260,38 C260,32.4771525 264.477153,28 270,28 Z M270,29.5 C265.30558,29.5 261.5,33.3055796 261.5,38 C261.5,42.6944204 265.30558,46.5 270,46.5 C274.69442,46.5 278.5,42.6944204 278.5,38 C278.5,33.3055796 274.69442,29.5 270,29.5 Z M273.70672,35.307772 L274.76738,36.3684321 L269.110526,42.0252864 L265.23262,38.1473798 L266.29328,37.0867196 L269.109686,39.9045401 L273.70672,35.307772 Z" id="形状结合"></path>
            </g>
        </g>
    </g>
</svg>