<?xml version="1.0" encoding="UTF-8"?>
<svg width="14px" height="15px" viewBox="0 0 14 15" version="1.1" xmlns="http://www.w3.org/2000/svg" xmlns:xlink="http://www.w3.org/1999/xlink">
    <title>编组 11@2x</title>
    <g id="页面-1" stroke="none" stroke-width="1" fill="none" fill-rule="evenodd">
        <g id="Interactions-主网" transform="translate(-643.000000, -556.000000)" fill="currentColor">
            <g id="编组-11" transform="translate(643.000000, 556.000000)">
                <path d="M10.5191798,0 L10.519,1.363 L2.1,1.36363636 C1.74561729,1.36363636 1.45274177,1.62697999 1.40639017,1.96865051 L1.4,2.06363636 L1.4,11.616 L0,11.6161416 L0,1.4 C-9.46895252e-17,0.62680135 0.62680135,3.64078893e-16 1.4,0 L10.5191798,0 Z" id="形状结合"></path>
                <path d="M12,2.72727273 C13.1045695,2.72727273 14,3.62270323 14,4.72727273 L14,13 C14,14.1045695 13.1045695,15 12,15 L4.8,15 C3.6954305,15 2.8,14.1045695 2.8,13 L2.8,4.72727273 C2.8,3.62270323 3.6954305,2.72727273 4.8,2.72727273 L12,2.72727273 Z M11.9,4.09090909 L4.9,4.09090909 C4.51340068,4.09090909 4.2,4.40430977 4.2,4.79090909 L4.2,12.9363636 C4.2,13.322963 4.51340068,13.6363636 4.9,13.6363636 L11.9,13.6363636 C12.2865993,13.6363636 12.6,13.322963 12.6,12.9363636 L12.6,4.79090909 C12.6,4.40430977 12.2865993,4.09090909 11.9,4.09090909 Z" id="形状结合"></path>
            </g>
        </g>
    </g>
</svg>