<?xml version="1.0" encoding="UTF-8"?>
<svg width="45px" height="24px" viewBox="0 0 45 24" version="1.1" xmlns="http://www.w3.org/2000/svg" xmlns:xlink="http://www.w3.org/1999/xlink">
    <title>编组 7</title>
    <defs>
        <linearGradient x1="3.834112%" y1="42.7807126%" x2="87.2943937%" y2="54.405207%" id="linearGradient-1">
            <stop stop-color="#53FF89" offset="0%"></stop>
            <stop stop-color="#00A974" offset="100%"></stop>
        </linearGradient>
    </defs>
    <g id="页面-1" stroke="none" stroke-width="1" fill="none" fill-rule="evenodd">
        <g id="Tronscription-Market——token加搜索1" transform="translate(-469.000000, -650.000000)">
            <g id="编组备份-2" transform="translate(320.000000, 361.000000)">
                <g id="编组-5" transform="translate(1.000000, 182.000000)">
                    <g id="编组-7" transform="translate(148.993855, 107.968030)">
                        <path d="M11.066473,0.384564926 C11.2337394,0.506626022 11.3810358,0.653922435 11.5030969,0.821188852 L13.3947086,3.41335887 C13.7271168,3.86887435 14.2363766,4.16289564 14.7970686,4.22301179 L17.9877595,4.56511058 C18.8316546,4.65559113 19.4964151,5.25856772 19.7056627,6.03127905 L40.0061452,6.0319702 C42.2152842,6.0319702 44.0061452,7.8228312 44.0061452,10.0319702 L44.0061452,18.0319702 C44.0061452,20.2411092 42.2152842,22.0319702 40.0061452,22.0319702 L10.7210999,22.0328372 C10.2005168,22.2709026 9.59000971,22.2794085 9.05362044,22.0327247 L9.00614515,22.0319702 L9.00584301,22.0099778 C8.90343311,21.9595407 8.80395292,21.8996126 8.70857376,21.8300106 C8.54130735,21.7079495 8.39401093,21.5606531 8.27194984,21.3933866 L6.38033812,18.8012166 C6.04792998,18.3457011 5.53867017,18.0516799 4.97797813,17.9915637 L1.78728718,17.6494649 C0.689012338,17.5317103 -0.105856383,16.5459237 0.0118982044,15.4476488 C0.033973006,15.2417613 0.087887235,15.0405507 0.171713653,14.8512095 L1.47079288,11.9169407 C1.69907679,11.401309 1.69907679,10.8132665 1.47079288,10.2976348 L0.171713653,7.36336602 C-0.275445305,6.35335481 0.180836598,5.17208499 1.19084781,4.72492603 C1.38018903,4.64109961 1.58139967,4.58718538 1.78728718,4.56511058 L4.97797813,4.22301179 C5.53867017,4.16289564 6.04792998,3.86887435 6.38033812,3.41335887 L8.27194984,0.821188852 C8.92306572,-0.0710677705 10.1742163,-0.266550961 11.066473,0.384564926 Z" id="形状结合" fill="url(#linearGradient-1)"></path>
                        <text id="Frist" font-family="Poppins-SemiBold, Poppins" font-size="13" font-weight="500" line-spacing="16" fill="#FFFFFF">
                            <tspan x="10.8122058" y="20.5319702">First</tspan>
                        </text>
                        <g id="1" transform="translate(7.506145, 8.031970)"></g>
                    </g>
                </g>
            </g>
        </g>
    </g>
</svg>
