<?xml version="1.0" standalone="no"?><!DOCTYPE svg PUBLIC "-//W3C//DTD SVG 1.1//EN" "http://www.w3.org/Graphics/SVG/1.1/DTD/svg11.dtd"><svg t="1703519659963" class="icon" viewBox="0 0 1280 1024" version="1.1" xmlns="http://www.w3.org/2000/svg" p-id="4377" xmlns:xlink="http://www.w3.org/1999/xlink" width="250" height="200"><path d="M129.378896 778.015232s-149.49599-352.598706 113.075389-601.814199S943.921375-11.630678 1102.992969 80.378383s80.501684 266.45158 61.333823 343.056409l-55.588461-1.915121s-38.302415-172.494092-157.156473-226.150778c0 0-84.331925 67.012572-30.658585 185.91659 67.328984 149.179578 159.071593 383.323904 159.071594 383.323904z" fill="#C80000" p-id="4378"></path><path d="M122.11809 758.481001l942.172787-33.622859c-10.624757-26.645158-25.895763-64.947573-43.448261-107.96285-77.087773 6.51141-238.374245 15.337619-465.02462-17.336006-231.196705-33.306447-401.342692-0.333064-465.074579 15.80391a672.790239 672.790239 0 0 0 31.374673 143.117805z" fill="#FFFFFF" opacity=".2" p-id="4379"></path><path d="M1051.301362 984.315368c-74.939507 11.057741-151.544336 21.965602-227.666222 29.043222-153.459457 14.271813-311.282058 13.522418-464.87474 1.665322a1944.180606 1944.180606 0 0 1-232.578923-31.441286c-35.171609-7.060967-64.947573-12.056934-90.077287-39.817858C13.206007 918.435215 0 883.663284 0 847.908812c0-74.822934 55.621767-136.056838 123.61688-136.056838 55.605114 0 110.777244 8.942781 165.966028 15.087821 102.983536 11.490724 208.531668 10.774636 311.948187 9.892015 78.98624-0.666129 157.872561-5.329032 236.575697-11.873749 39.368221-3.330645 78.703135-7.044314 118.004743-11.024434 36.00427-3.647056 70.093419-7.377378 106.031076-0.682782 23.231247 4.313185 45.729752 12.689756 65.030838 26.478626 33.739431 24.130521 47.694833 65.114105 47.694833 108.245954 0 54.406082-32.024149 104.315794-82.300232 125.648573a167.864495 167.864495 0 0 1-41.266688 10.69137z" fill="#F7F7F7" p-id="4380"></path><path d="M920.923273 381.285483c-52.590881-116.572566 27.344593-183.185461 30.558666-185.816671C859.889208 151.504302 493.784738-3.803663 303.105326 217.817439a13.322579 13.322579 0 0 0 4.296531 20.566731c84.182046 40.667172 496.365987 233.727995 631.15718 182.785784-5.945201-13.772216-11.873749-27.144755-17.635764-39.884471zM964.521413 201.86365q4.629596 2.547943 9.09266 5.312379l-0.899274-1.08246s-2.847701-1.532097-8.193386-4.229919z" fill="#96000B" opacity=".53" p-id="4381"></path><path d="M1139.813246 477.757608m-141.119418 0a141.119418 141.119418 0 1 0 282.238836 0 141.119418 141.119418 0 1 0-282.238836 0Z" fill="#EAEAEA" p-id="4382"></path><path d="M1036.380074 477.757608a141.119418 122.267969 90 1 0 244.535937 0 141.119418 122.267969 90 1 0-244.535937 0Z" fill="#F7F7F7" p-id="4383"></path></svg>