<?xml version="1.0" encoding="UTF-8"?>
<svg width="4px" height="20px" viewBox="0 0 4 20" version="1.1" xmlns="http://www.w3.org/2000/svg" xmlns:xlink="http://www.w3.org/1999/xlink">
    <title>形状结合</title>
    <g id="页面-1" stroke="none" stroke-width="1" fill="none" fill-rule="evenodd">
        <g id="Tronscription-Market——My-Tronscriptions-" transform="translate(-577.000000, -619.000000)" fill="currentColor">
            <g id="编组-5" transform="translate(320.000000, 342.000000)">
                <path d="M259,281 C260.104569,281 261,280.104569 261,279 C261,277.895431 260.104569,277 259,277 C257.895431,277 257,277.895431 257,279 C257,280.104569 257.895431,281 259,281 Z M259,289 C260.104569,289 261,288.104569 261,287 C261,285.895431 260.104569,285 259,285 C257.895431,285 257,285.895431 257,287 C257,288.104569 257.895431,289 259,289 Z M259,297 C260.104569,297 261,296.104569 261,295 C261,293.895431 260.104569,293 259,293 C257.895431,293 257,293.895431 257,295 C257,296.104569 257.895431,297 259,297 Z" id="形状结合"></path>
            </g>
        </g>
    </g>
</svg>