<?xml version="1.0" encoding="UTF-8"?>
<svg width="36px" height="38px" viewBox="0 0 36 38" version="1.1" xmlns="http://www.w3.org/2000/svg" xmlns:xlink="http://www.w3.org/1999/xlink">
    <title>形状结合备份</title>
    <g id="页面-1" stroke="none" stroke-width="1" fill="none" fill-rule="evenodd">
        <g id="Tronscription-Market——token" transform="translate(-28.000000, -18.000000)" fill="#FFFFFF">
            <path d="M28.1580616,18.6857933 C27.9562841,18.1706869 27.8532879,17.922226 28.4467682,18.0214969 C28.5758762,18.0430926 29.6771886,18.228044 31.7507054,18.576351 L32.1641711,18.6458051 C32.3060396,18.6696364 32.4519548,18.6941476 32.6019166,18.7193388 L33.063942,18.7969522 C37.6475397,19.5669329 45.6343587,20.9087434 57.0243987,22.8223835 C61.2010227,27.3679901 63.4116333,29.7661506 63.6562305,30.0168649 C64.0231262,30.3929363 64.1066268,30.5876999 63.8568957,30.8520093 C63.7370248,30.9788778 59.1589235,36.5492788 54.3832955,42.3661705 L53.1877391,43.8225211 C48.4087783,49.644404 43.7873497,55.2796907 43.584157,55.5313394 L43.4313187,55.7187767 C43.133655,56.0758814 43.0390938,56.1095002 42.8637633,55.7235893 C42.8556711,55.705778 42.8250201,55.6309554 42.7736148,55.5036777 L42.6811669,55.2739896 C42.6094587,55.0953962 42.5178987,54.8666259 42.4082917,54.5922354 L42.2305715,54.147004 C41.1175462,51.3568767 38.6918824,45.2483721 36.162619,38.8739511 L35.7282417,37.7791579 C32.0312437,28.4609564 28.2609682,18.9484975 28.1580616,18.6857933 Z M28.5645924,18.5300276 L45.7684574,32.9945064 L43.1952603,55.4108433 L47.0328774,33.3060665 L63.2604455,30.6236622 L47.705659,32.0923528 L56.3824556,23.4888373 L46.4040627,31.6920065 L28.5645924,18.5300276 Z" id="形状结合备份"></path>
        </g>
    </g>
</svg>