<?xml version="1.0" encoding="UTF-8"?>
<svg width="16px" height="16px" viewBox="0 0 16 16" version="1.1" xmlns="http://www.w3.org/2000/svg" xmlns:xlink="http://www.w3.org/1999/xlink">
    <title>形状结合</title>
    <g id="页面-1" stroke="none" stroke-width="1" fill="none" fill-rule="evenodd">
        <g id="Tronscription-Market——Inscribe" transform="translate(-374.000000, -383.000000)" fill="#13E154">
            <g id="编组-2" transform="translate(320.000000, 186.000000)">
                <g id="编组备份" transform="translate(42.000000, 179.000000)">
                    <path d="M20,18 C24.418278,18 28,21.581722 28,26 C28,30.418278 24.418278,34 20,34 C15.581722,34 12,30.418278 12,26 C12,21.581722 15.581722,18 20,18 Z M20,23 C18.3431458,23 17,24.3431458 17,26 C17,27.6568542 18.3431458,29 20,29 C21.6568542,29 23,27.6568542 23,26 C23,24.3431458 21.6568542,23 20,23 Z" id="形状结合"></path>
                </g>
            </g>
        </g>
    </g>
</svg>