<?xml version="1.0" encoding="UTF-8"?>
<svg width="16px" height="16px" viewBox="0 0 16 16" version="1.1" xmlns="http://www.w3.org/2000/svg" xmlns:xlink="http://www.w3.org/1999/xlink">
    <title>形状结合</title>
    <g id="页面-1" stroke="none" stroke-width="1" fill="none" fill-rule="evenodd">
        <g id="Tronscription-Market——Inscribe" transform="translate(-548.000000, -383.000000)" fill="#3B424A">
            <g id="编组-2" transform="translate(318.000000, 186.000000)">
                <g id="编组备份-2" transform="translate(218.000000, 179.000000)">
                    <path d="M20,18 C24.418278,18 28,21.581722 28,26 C28,30.418278 24.418278,34 20,34 C15.581722,34 12,30.418278 12,26 C12,21.581722 15.581722,18 20,18 Z M20,20 C16.6862915,20 14,22.6862915 14,26 C14,29.3137085 16.6862915,32 20,32 C23.3137085,32 26,29.3137085 26,26 C26,22.6862915 23.3137085,20 20,20 Z" id="形状结合"></path>
                </g>
            </g>
        </g>
    </g>
</svg>