<?xml version="1.0" encoding="UTF-8"?>
<svg width="16px" height="15px" viewBox="0 0 16 15" version="1.1" xmlns="http://www.w3.org/2000/svg" xmlns:xlink="http://www.w3.org/1999/xlink">
    <title>形状结合</title>
    <g id="页面-1" stroke="none" stroke-width="1" fill="none" fill-rule="evenodd">
        <g id="Tronscription-Market——Listing" transform="translate(-1568.000000, -202.000000)" fill="currentColor">
            <g id="二级导航" transform="translate(320.000000, 182.000000)">
                <g id="编组-12" transform="translate(1066.000000, 10.000000)">
                    <path d="M191,10 C194.865993,10 198,13.0444637 198,16.8 C198,20.2693238 195.325481,23.1318278 191.870074,23.5479853 C191.873864,23.5718582 191.875,23.5982699 191.875,23.625 L191.875,26.125 C191.875,26.2887645 191.832366,26.4405748 191.757324,26.5702045 C191.682283,26.6998341 191.574834,26.807283 191.445204,26.8823245 C191.315575,26.9573659 191.163764,27 191,27 C190.836236,27 190.684425,26.9573659 190.554796,26.8823245 C190.425166,26.807283 190.317717,26.6998341 190.242676,26.5702045 C190.167634,26.4405748 190.125,26.2887645 190.125,26.125 L190.125,23.625 L190.128927,23.5478649 C186.674003,23.1312761 184,20.2689894 184,16.8 C184,13.0444637 187.134007,10 191,10 Z M191,11.7 C188.100505,11.7 185.75,13.9833478 185.75,16.8 C185.75,19.6166522 188.100505,21.9 191,21.9 C193.899495,21.9 196.25,19.6166522 196.25,16.8 C196.25,13.9833478 193.899495,11.7 191,11.7 Z" id="形状结合" transform="translate(191.000000, 18.500000) rotate(-45.000000) translate(-191.000000, -18.500000) "></path>
                </g>
            </g>
        </g>
    </g>
</svg>