<?xml version="1.0" encoding="UTF-8"?>
<svg width="32px" height="32px" viewBox="0 0 32 32" version="1.1" xmlns="http://www.w3.org/2000/svg" xmlns:xlink="http://www.w3.org/1999/xlink">
    <title>编组 7</title>
    <defs>
        <linearGradient x1="22.2214355%" y1="28.0349121%" x2="79.092041%" y2="71.282959%" id="linearGradient-1">
            <stop stop-color="#F2D587" offset="0%"></stop>
            <stop stop-color="#B28D53" offset="100%"></stop>
        </linearGradient>
    </defs>
    <g id="页面-1" stroke="none" stroke-width="1" fill="none" fill-rule="evenodd">
        <g id="Tronscription-Market——token" transform="translate(-464.000000, -306.000000)">
            <g id="编组备份-2" transform="translate(320.000000, 239.000000)">
                <g id="编组-5" transform="translate(1.000000, 18.000000)">
                    <g id="编组-7" transform="translate(143.572067, 49.572067)">
                        <path d="M13.3779547,25.2825519 C12.828727,25.8271185 11.9420315,25.8233399 11.3974649,25.2741122 C11.1921074,25.066997 11.0565405,24.800932 11.0096869,24.513055 C10.7677873,23.0267809 9.37296871,22.0133858 7.88468693,22.2426096 C7.12026418,22.3603453 6.40513347,21.8361019 6.28739778,21.0716791 C6.24299934,20.7834133 6.28971249,20.488478 6.42101697,20.2280408 C7.09892611,18.8834347 6.5661528,17.2437271 5.22737318,16.5543829 C4.53973888,16.2003167 4.26932855,15.3558515 4.62339479,14.6682172 C4.75691412,14.4089085 4.96806446,14.1977582 5.22737318,14.0642389 C6.5661528,13.3748947 7.09892611,11.7351871 6.42101697,10.390581 C6.07282405,9.69995412 6.35042165,8.85782426 7.04104856,8.50963135 C7.3014858,8.37832687 7.59642108,8.33161371 7.88468693,8.37601216 C9.37296871,8.60523595 10.7677873,7.59184089 11.0096869,6.10556676 C11.1339333,5.34217519 11.8535059,4.8240456 12.6168975,4.94829192 C12.9047745,4.99514554 13.1708395,5.13071241 13.3779547,5.33606992 C14.4472656,6.39630594 16.1713562,6.39630594 17.2406671,5.33606992 C17.7898948,4.79150332 18.6765903,4.79528189 19.2211569,5.34450959 C19.4265144,5.55162481 19.5620812,5.81768977 19.6089349,6.10556676 C19.8508344,7.59184089 21.2456531,8.60523595 22.7339349,8.37601216 C23.4983576,8.25827647 24.2134883,8.78251991 24.331224,9.54694266 C24.3756224,9.83520851 24.3289093,10.1301438 24.1976048,10.390581 C23.5196957,11.7351871 24.052469,13.3748947 25.3912486,14.0642389 C26.0788829,14.4183051 26.3492932,15.2627702 25.995227,15.9504045 C25.8617077,16.2097133 25.6505573,16.4208636 25.3912486,16.5543829 C24.052469,17.2437271 23.5196957,18.8834347 24.1976048,20.2280408 C24.5457977,20.9186677 24.2682001,21.7607975 23.5775732,22.1089904 C23.317136,22.2402949 23.0222007,22.2870081 22.7339349,22.2426096 C21.2456531,22.0133858 19.8508344,23.0267809 19.6089349,24.513055 C19.4846885,25.2764466 18.7651158,25.7945762 18.0017243,25.6703299 C17.7138473,25.6234762 17.4477823,25.4879094 17.2406671,25.2825519 C16.1713562,24.2223158 14.4472656,24.2223158 13.3779547,25.2825519 Z" id="星形" fill="url(#linearGradient-1)" transform="translate(15.309311, 15.309311) rotate(-345.000000) translate(-15.309311, -15.309311) "></path>
                        <path d="M12.6953131,10.8093109 L12.6943131,14.7933109 L19.1953131,14.793499 L19.1953131,16.293499 L11.1953131,16.293499 L11.1953131,10.8093109 L12.6953131,10.8093109 Z" id="形状结合" stroke="#FFFFFF" stroke-width="0.6" fill="#FFFFFF" transform="translate(15.195313, 13.551405) rotate(-45.000000) translate(-15.195313, -13.551405) "></path>
                    </g>
                </g>
            </g>
        </g>
    </g>
</svg>