<?xml version="1.0" encoding="UTF-8"?>
<svg width="22px" height="18px" viewBox="0 0 22 18" version="1.1" xmlns="http://www.w3.org/2000/svg" xmlns:xlink="http://www.w3.org/1999/xlink">
    <title>路径</title>
    <g id="页面-1" stroke="none" stroke-width="1" fill="none" fill-rule="evenodd">
        <g id="Tronscription-Market——token加搜索1" transform="translate(-1558.000000, -26.000000)" fill="#FFFFFF">
            <path d="M1558,41.9311163 C1558.35289,41.973664 1558.71321,41.9967106 1559.07725,41.9967106 C1561.19274,42.0002563 1563.13921,41.2716273 1564.68265,40.0483817 C1562.70646,40.0040612 1561.04044,38.6709008 1560.46653,36.8413508 C1560.74141,36.8963082 1561.02558,36.928219 1561.31532,36.9299918 C1561.72765,36.9317646 1562.12512,36.87858 1562.50401,36.7757565 C1560.43867,36.3396428 1558.88223,34.469318 1558.88223,32.2408835 C1558.88223,32.2213825 1558.88223,32.2018815 1558.88223,32.1823805 C1559.49143,32.5333988 1560.18607,32.7461372 1560.92714,32.7780479 C1559.71802,31.9430498 1558.92123,30.524794 1558.92123,28.9292562 C1558.92123,28.0853941 1559.14411,27.2982621 1559.53229,26.6245906 C1561.75922,29.4345099 1565.08569,31.2995163 1568.83563,31.5317556 C1568.75762,31.1966927 1568.71862,30.8474472 1568.71862,30.4911104 C1568.71862,27.9719336 1570.73938,25.961556 1573.23191,26.000558 C1574.53018,26.0218318 1575.70401,26.590907 1576.5268,27.4844081 C1577.55576,27.2964892 1578.52157,26.934834 1579.39266,26.4295804 C1579.05648,27.4808625 1578.33955,28.3566355 1577.40718,28.9044368 C1578.32098,28.8069317 1579.19021,28.5764651 1580,28.2272196 C1579.39451,29.1260392 1578.6293,29.9113984 1577.74707,30.5389766 C1577.75635,30.7339868 1577.76007,30.9289969 1577.76007,31.1240071 C1577.76007,37.1055009 1573.21891,44.0035426 1564.91667,44 C1562.37028,44.0017698 1559.99662,43.2394572 1558,41.9311163 Z" id="路径"></path>
        </g>
    </g>
</svg>