<?xml version="1.0" encoding="UTF-8"?>
<svg width="18px" height="18px" viewBox="0 0 18 18" version="1.1" xmlns="http://www.w3.org/2000/svg" xmlns:xlink="http://www.w3.org/1999/xlink">
    <title>形状结合</title>
    <g id="页面-1" stroke="none" stroke-width="1" fill="none" fill-rule="evenodd">
        <g id="Tronscription-Market——token加搜索1" transform="translate(-327.000000, -81.000000)" fill="currentColor" fill-rule="nonzero">
            <path d="M336,81 C340.970563,81 345,85.0294373 345,90 C345,94.9705627 340.970563,99 336,99 C331.029437,99 327,94.9705627 327,90 C327,85.0294373 331.029437,81 336,81 Z M336,82.5 C331.857864,82.5 328.5,85.8578644 328.5,90 C328.5,94.1421356 331.857864,97.5 336,97.5 C340.142136,97.5 343.5,94.1421356 343.5,90 C343.5,85.8578644 340.142136,82.5 336,82.5 Z M336.157,92.882 C336.525667,92.882 336.836,93.008 337.088,93.26 C337.34,93.512 337.466,93.8246667 337.466,94.198 C337.466,94.562 337.34,94.87 337.088,95.122 C336.836,95.374 336.525667,95.5 336.157,95.5 C335.788333,95.5 335.478,95.374 335.226,95.122 C334.974,94.87 334.848,94.5596667 334.848,94.191 C334.848,93.8223333 334.974,93.512 335.226,93.26 C335.478,93.008 335.788333,92.882 336.157,92.882 Z M337.396,84.972 L337.116,91.972 L335.086,91.972 L334.806,84.972 L337.396,84.972 Z" id="形状结合"></path>
        </g>
    </g>
</svg>